<svg xmlns="http://www.w3.org/2000/svg" xmlns:xlink="http://www.w3.org/1999/xlink" width="1962" height="674.379" viewBox="0 0 1962 674.379"><defs><clipPath id="a"/></defs><g transform="translate(25.015 -2521.375)" clip-path="url(#a)"><path d="M123.178,167.758,371.889,0,370,163.689a95,95,0,0,1-95,95H0Z" transform="translate(136.356 2521.375) rotate(34)" fill="#fff" opacity="0.12"/><path d="M0,0H207a95,95,0,0,1,95,95V198L109.536,71.134Z" transform="matrix(0.839, -0.545, 0.545, 0.839, 1575.868, 3029.697)" fill="#fff" opacity="0.1"/><g transform="translate(52.575 2923.514) rotate(43)" opacity="0.2"><circle cx="5.688" cy="5.688" r="5.688" fill="#fff"/><circle cx="5.688" cy="5.688" r="5.688" transform="translate(34.13)" fill="#fff"/><circle cx="5.688" cy="5.688" r="5.688" transform="translate(68.261)" fill="#fff"/><circle cx="5.688" cy="5.688" r="5.688" transform="translate(102.391)" fill="#fff"/><circle cx="5.688" cy="5.688" r="5.688" transform="translate(0 34.13)" fill="#fff"/><circle cx="5.688" cy="5.688" r="5.688" transform="translate(34.13 34.13)" fill="#fff"/><circle cx="5.688" cy="5.688" r="5.688" transform="translate(68.261 34.13)" fill="#fff"/><circle cx="5.688" cy="5.688" r="5.688" transform="translate(102.391 34.13)" fill="#fff"/><circle cx="5.688" cy="5.688" r="5.688" transform="translate(0 68.261)" fill="#fff"/><circle cx="5.688" cy="5.688" r="5.688" transform="translate(34.13 68.261)" fill="#fff"/><circle cx="5.688" cy="5.688" r="5.688" transform="translate(68.261 68.261)" fill="#fff"/><circle cx="5.688" cy="5.688" r="5.688" transform="translate(102.391 68.261)" fill="#fff"/><circle cx="5.688" cy="5.688" r="5.688" transform="translate(0 102.391)" fill="#fff"/><circle cx="5.688" cy="5.688" r="5.688" transform="translate(34.13 102.391)" fill="#fff"/><circle cx="5.688" cy="5.688" r="5.688" transform="translate(68.261 102.391)" fill="#fff"/><circle cx="5.688" cy="5.688" r="5.688" transform="translate(102.391 102.391)" fill="#fff"/></g><g transform="translate(1799.383 2678.514) rotate(43)" opacity="0.2"><circle cx="5.688" cy="5.688" r="5.688" fill="#fff"/><circle cx="5.688" cy="5.688" r="5.688" transform="translate(34.13 0)" fill="#fff"/><circle cx="5.688" cy="5.688" r="5.688" transform="translate(68.261 0)" fill="#fff"/><circle cx="5.688" cy="5.688" r="5.688" transform="translate(102.391 0)" fill="#fff"/><circle cx="5.688" cy="5.688" r="5.688" transform="translate(0 34.13)" fill="#fff"/><circle cx="5.688" cy="5.688" r="5.688" transform="translate(34.13 34.13)" fill="#fff"/><circle cx="5.688" cy="5.688" r="5.688" transform="translate(68.261 34.13)" fill="#fff"/><circle cx="5.688" cy="5.688" r="5.688" transform="translate(102.391 34.13)" fill="#fff"/><circle cx="5.688" cy="5.688" r="5.688" transform="translate(0 68.261)" fill="#fff"/><circle cx="5.688" cy="5.688" r="5.688" transform="translate(34.13 68.261)" fill="#fff"/><circle cx="5.688" cy="5.688" r="5.688" transform="translate(68.261 68.261)" fill="#fff"/><circle cx="5.688" cy="5.688" r="5.688" transform="translate(102.391 68.261)" fill="#fff"/><circle cx="5.688" cy="5.688" r="5.688" transform="translate(0 102.391)" fill="#fff"/><circle cx="5.688" cy="5.688" r="5.688" transform="translate(34.13 102.391)" fill="#fff"/><circle cx="5.688" cy="5.688" r="5.688" transform="translate(68.261 102.391)" fill="#fff"/><circle cx="5.688" cy="5.688" r="5.688" transform="translate(102.391 102.391)" fill="#fff"/></g></g></svg>