<svg xmlns="http://www.w3.org/2000/svg" width="751.271" height="694" viewBox="0 0 751.271 694">
  <g id="Illustrations" transform="translate(-1043.729 -180)">
    <g id="Group_219" data-name="Group 219" transform="translate(-4810 1532)" opacity="0.06">
      <g id="Group_178" data-name="Group 178" transform="translate(5915 -1352)">
        <path id="Path_1" data-name="Path 1" d="M468.121-48.817c206.463-25.29,81.295,296.578,161.3,418.428S540.383,654.694,351.985,643.2,41,493.139,41,323.63,261.657-23.527,468.121-48.817Z" transform="translate(0 50.226)" fill="#2ec1fc" opacity="0.5"/>
        <path id="NoPath_-_Copy_9_" data-name="NoPath - Copy (9)" d="M194.647,30C373.471,30,690,117.086,690,287.261S410.9,653.274,232.08,653.274,0,473.222,0,303.048,15.824,30,194.647,30Z" transform="translate(0 5)" fill="#2fc4fc"/>
        <g id="Point" transform="translate(54 594)">
          <circle id="Ellipse_1" data-name="Ellipse 1" cx="5" cy="5" r="5" fill="rgba(27,140,253,0.7)"/>
          <circle id="Ellipse_1-2" data-name="Ellipse 1" cx="5" cy="5" r="5" transform="translate(30)" fill="rgba(27,140,253,0.7)"/>
          <circle id="Ellipse_1-3" data-name="Ellipse 1" cx="5" cy="5" r="5" transform="translate(60)" fill="rgba(27,140,253,0.7)"/>
          <circle id="Ellipse_1-4" data-name="Ellipse 1" cx="5" cy="5" r="5" transform="translate(90)" fill="rgba(27,140,253,0.7)"/>
          <circle id="Ellipse_1-5" data-name="Ellipse 1" cx="5" cy="5" r="5" transform="translate(0 30)" fill="rgba(27,140,253,0.7)"/>
          <circle id="Ellipse_1-6" data-name="Ellipse 1" cx="5" cy="5" r="5" transform="translate(30 30)" fill="rgba(27,140,253,0.7)"/>
          <circle id="Ellipse_1-7" data-name="Ellipse 1" cx="5" cy="5" r="5" transform="translate(60 30)" fill="rgba(27,140,253,0.7)"/>
          <circle id="Ellipse_1-8" data-name="Ellipse 1" cx="5" cy="5" r="5" transform="translate(90 30)" fill="rgba(27,140,253,0.7)"/>
          <circle id="Ellipse_1-9" data-name="Ellipse 1" cx="5" cy="5" r="5" transform="translate(0 60)" fill="rgba(27,140,253,0.7)"/>
          <circle id="Ellipse_1-10" data-name="Ellipse 1" cx="5" cy="5" r="5" transform="translate(30 60)" fill="rgba(27,140,253,0.7)"/>
          <circle id="Ellipse_1-11" data-name="Ellipse 1" cx="5" cy="5" r="5" transform="translate(60 60)" fill="rgba(27,140,253,0.7)"/>
          <circle id="Ellipse_1-12" data-name="Ellipse 1" cx="5" cy="5" r="5" transform="translate(90 60)" fill="rgba(27,140,253,0.7)"/>
          <circle id="Ellipse_1-13" data-name="Ellipse 1" cx="5" cy="5" r="5" transform="translate(0 90)" fill="rgba(27,140,253,0.7)"/>
          <circle id="Ellipse_1-14" data-name="Ellipse 1" cx="5" cy="5" r="5" transform="translate(30 90)" fill="rgba(27,140,253,0.7)"/>
          <circle id="Ellipse_1-15" data-name="Ellipse 1" cx="5" cy="5" r="5" transform="translate(60 90)" fill="rgba(27,140,253,0.7)"/>
          <circle id="Ellipse_1-16" data-name="Ellipse 1" cx="5" cy="5" r="5" transform="translate(90 90)" fill="rgba(27,140,253,0.7)"/>
        </g>
      </g>
    </g>
    <g id="undraw_mobile_testing_reah" transform="translate(1043.729 179.994)">
      <path id="Path_315" data-name="Path 315" d="M473.958,353.177c-28.716-9.294-59.078-17.085-90.108-16.282-45.618,1.185-89.48,22.443-111.112,53.863-18.286,26.625-20.726,57.917-28.708,87.524-9.834,36.476-28.5,71.091-48.425,104.943-10.7,18.182-21.99,36.746-23.851,56.725-2.552,27.738,14.255,55.469,40.753,74.056s61.757,28.494,97.183,30.807c18.85,1.224,38.551.278,55.334-6.511,17.753-7.155,30.736-20.249,48.56-27.325,16.521-6.551,35.776-7.394,54.308-6.432a302.159,302.159,0,0,1,70.8,12.132c25.83,7.728,49.832,18.85,75.606,26.689s54.586,12.275,81,5.971c24.8-5.915,44.466-20.5,62.2-35.267a676.3,676.3,0,0,0,79.462-77.912c16.02-18.6,30.942-38.232,38.1-59.96,13.666-41.548-4.643-88.589-45.61-117.2-33.94-23.715-79.6-34.186-124.31-40.546-40.777-5.859-87.953-6.44-125.431-21.362C543.968,382.816,511.451,365.309,473.958,353.177Z" transform="translate(-144.795 -101.289)" fill="#1b8cfd" opacity="0.1"/>
      <ellipse id="Ellipse_30" data-name="Ellipse 30" cx="18.373" cy="2.52" rx="18.373" ry="2.52" transform="translate(676.834 388.433)" fill="#1b8cfd" opacity="0.1"/>
      <ellipse id="Ellipse_31" data-name="Ellipse 31" cx="18.373" cy="2.52" rx="18.373" ry="2.52" transform="translate(606.451 395.572)" fill="#1b8cfd" opacity="0.1"/>
      <ellipse id="Ellipse_32" data-name="Ellipse 32" cx="18.373" cy="2.52" rx="18.373" ry="2.52" transform="translate(523.546 385.913)" fill="#1b8cfd" opacity="0.1"/>
      <ellipse id="Ellipse_33" data-name="Ellipse 33" cx="13.062" cy="1.797" rx="13.062" ry="1.797" transform="translate(639.929 416.617)" fill="#1b8cfd" opacity="0.1"/>
      <ellipse id="Ellipse_34" data-name="Ellipse 34" cx="13.062" cy="1.797" rx="13.062" ry="1.797" transform="translate(566.883 414.82)" fill="#1b8cfd" opacity="0.1"/>
      <path id="Path_316" data-name="Path 316" d="M903.16,504.6s25.775-84.479-4.031-118.315c-22.261-25.313-47.606-22.261-58.935-19.152a20.925,20.925,0,0,0-13.515,11.234c-3.975,8.546-3.244,22.42,24.725,38.614C898.239,444.1,901.156,481.3,901.156,481.3Z" transform="translate(-278.734 -107.081)" fill="#00d280"/>
      <path id="Path_317" data-name="Path 317" d="M849.2,382.73s75.972,23.755,58.935,125.486" transform="translate(-283.709 -110.696)" fill="none" stroke="#565987" stroke-width="1"/>
      <path id="Path_318" data-name="Path 318" d="M902.989,393.44s-10.463,7.052-7.155,17.642" transform="translate(-293.135 -112.891)" fill="none" stroke="#565987" stroke-width="1"/>
      <path id="Path_319" data-name="Path 319" d="M858.79,400.3s6.36-6.5,14.175-2.918" transform="translate(-285.674 -113.478)" fill="none" stroke="#565987" stroke-width="1"/>
      <path id="Path_320" data-name="Path 320" d="M896.56,441.925s11.226-5.692,14.128,1.439" transform="translate(-293.416 -122.389)" fill="none" stroke="#565987" stroke-width="1"/>
      <path id="Path_321" data-name="Path 321" d="M929.3,457.409s-8.435-.668-8.586,3.363" transform="translate(-298.367 -125.995)" fill="none" stroke="#565987" stroke-width="1"/>
      <path id="Path_322" data-name="Path 322" d="M912.9,525.93s-30.211-61.4-38.471-60.056c-3.975.636-5.756,4.516-6.575,8.4a24.708,24.708,0,0,0,1.646,14.946C873.784,499.051,885.289,517.71,912.9,525.93Z" transform="translate(-287.432 -127.734)" fill="#00d280"/>
      <path id="Path_323" data-name="Path 323" d="M876.53,480.54s31.682,45.936,37.8,47.956" transform="translate(-289.311 -130.745)" fill="none" stroke="#565987" stroke-width="1"/>
      <line id="Line_13" data-name="Line 13" x2="7.394" transform="translate(584.309 356.966)" fill="none" stroke="#565987" stroke-width="1"/>
      <line id="Line_14" data-name="Line 14" x2="11.591" y2="0.493" transform="translate(593.166 373.773)" fill="none" stroke="#565987" stroke-width="1"/>
      <line id="Line_15" data-name="Line 15" x1="1.256" y2="6.034" transform="translate(598.962 360.329)" fill="none" stroke="#565987" stroke-width="1"/>
      <line id="Line_16" data-name="Line 16" x1="0.223" y2="5.486" transform="translate(612.318 378.702)" fill="none" stroke="#565987" stroke-width="1"/>
      <path id="Path_324" data-name="Path 324" d="M923.52,525.93s30.211-61.4,38.471-60.056c3.975.636,5.756,4.516,6.575,8.4a24.71,24.71,0,0,1-1.646,14.946C962.635,499.051,951.131,517.71,923.52,525.93Z" transform="translate(-298.943 -127.734)" fill="#00d280"/>
      <path id="Path_325" data-name="Path 325" d="M961.883,480.54S930.2,526.476,924.08,528.5" transform="translate(-299.057 -130.745)" fill="none" stroke="#565987" stroke-width="1"/>
      <line id="Line_17" data-name="Line 17" x1="7.394" transform="translate(658.342 356.966)" fill="none" stroke="#565987" stroke-width="1"/>
      <line id="Line_18" data-name="Line 18" x1="11.591" y2="0.493" transform="translate(645.288 373.773)" fill="none" stroke="#565987" stroke-width="1"/>
      <line id="Line_19" data-name="Line 19" x2="1.256" y2="6.034" transform="translate(649.827 360.329)" fill="none" stroke="#565987" stroke-width="1"/>
      <line id="Line_20" data-name="Line 20" x2="0.231" y2="5.486" transform="translate(637.496 378.702)" fill="none" stroke="#565987" stroke-width="1"/>
      <path id="Path_326" data-name="Path 326" d="M857.868,557.319a5.279,5.279,0,0,1-1.717-2.592,2.313,2.313,0,0,1,1.2-2.647c1.105-.421,2.282.342,3.18,1.121s1.916,1.646,3.085,1.487a4.7,4.7,0,0,1-1.447-4.4,1.845,1.845,0,0,1,.4-.9c.612-.652,1.725-.366,2.457.143,2.329,1.646,2.981,4.81,3,7.656a14.866,14.866,0,0,0,0-3.18,3.236,3.236,0,0,1,1.185-2.79,3.507,3.507,0,0,1,1.8-.429,3.752,3.752,0,0,1,2.934.835,2.931,2.931,0,0,1-.119,3.6,11.435,11.435,0,0,1-3.029,2.385,6.663,6.663,0,0,0-2.17,2.067,2.552,2.552,0,0,0-.159.366H861.9a18.107,18.107,0,0,1-4.031-2.727Z" transform="translate(-285.118 -144.781)" fill="#00d280"/>
      <path id="Path_327" data-name="Path 327" d="M1002.538,526.21a5.209,5.209,0,0,1-1.717-2.592,2.306,2.306,0,0,1,1.2-2.64c1.105-.421,2.282.342,3.18,1.113s1.924,1.654,3.093,1.487a4.683,4.683,0,0,1-1.455-4.4,1.756,1.756,0,0,1,.406-.89c.612-.652,1.717-.374,2.449.143,2.329,1.638,2.981,4.77,3,7.656a14.427,14.427,0,0,0,0-3.18,3.236,3.236,0,0,1,1.185-2.791,3.616,3.616,0,0,1,1.8-.421,3.72,3.72,0,0,1,2.934.795,2.9,2.9,0,0,1-.119,3.594,11.306,11.306,0,0,1-3.029,2.433,6.662,6.662,0,0,0-2.17,2.067,1.948,1.948,0,0,0-.159.366h-6.567A18.322,18.322,0,0,1,1002.538,526.21Z" transform="translate(-314.772 -138.405)" fill="#00d280"/>
      <path id="Path_328" data-name="Path 328" d="M954.318,557.319a5.279,5.279,0,0,1-1.717-2.592,2.313,2.313,0,0,1,1.2-2.647c1.1-.421,2.282.342,3.18,1.121s1.916,1.646,3.085,1.487a4.707,4.707,0,0,1-1.455-4.4,1.934,1.934,0,0,1,.406-.9c.612-.652,1.725-.366,2.457.143,2.329,1.646,2.981,4.81,3,7.656a14.866,14.866,0,0,0,.04-3.18,3.236,3.236,0,0,1,1.185-2.791,3.507,3.507,0,0,1,1.8-.429,3.752,3.752,0,0,1,2.933.835,2.931,2.931,0,0,1-.119,3.6,11.431,11.431,0,0,1-3.029,2.385,6.66,6.66,0,0,0-2.17,2.067,2.528,2.528,0,0,0-.159.366h-6.567A18.108,18.108,0,0,1,954.318,557.319Z" transform="translate(-304.888 -144.781)" fill="#00d280"/>
      <path id="Path_329" data-name="Path 329" d="M816.625,496.58s-2.465,3.22,1.137,8.077,6.559,8.968,5.366,12c0,0-5.43-9.023-9.85-9.151S811.759,502.01,816.625,496.58Z" transform="translate(-275.899 -134.033)" fill="#00d280"/>
      <path id="Path_330" data-name="Path 330" d="M816.625,496.58a3.888,3.888,0,0,0-.509,1.01c-4.309,5.064-6.607,9.795-2.464,9.914,3.864.111,8.5,7.012,9.6,8.745a1.224,1.224,0,0,1-.127.4s-5.43-9.024-9.85-9.151S811.759,502.01,816.625,496.58Z" transform="translate(-275.899 -134.033)" opacity="0.1"/>
      <path id="Path_331" data-name="Path 331" d="M812.29,501.553c0,1.137.127,2.051.286,2.051s.278-.914.278-2.051-.159-.6-.31-.6S812.29,500.424,812.29,501.553Z" transform="translate(-276.143 -134.904)" fill="#ffd037"/>
      <path id="Path_332" data-name="Path 332" d="M810.154,503.241c.994.549,1.868.875,1.94.739s-.668-.692-1.662-1.232-.6-.151-.684,0S809.16,502.7,810.154,503.241Z" transform="translate(-275.581 -135.24)" fill="#ffd037"/>
      <path id="Path_333" data-name="Path 333" d="M832.655,496.58s2.465,3.22-1.137,8.077-6.559,8.968-5.358,12c0,0,5.422-9.023,9.842-9.151S837.521,502.01,832.655,496.58Z" transform="translate(-278.93 -134.033)" fill="#00d280"/>
      <path id="Path_334" data-name="Path 334" d="M832.69,496.58a3.888,3.888,0,0,1,.509,1.01c4.309,5.064,6.607,9.795,2.465,9.914-3.864.111-8.5,7.012-9.6,8.745a3.349,3.349,0,0,0,.135.4s5.422-9.024,9.842-9.151S837.556,502.01,832.69,496.58Z" transform="translate(-278.966 -134.033)" opacity="0.1"/>
      <path id="Path_335" data-name="Path 335" d="M840.014,501.553c0,1.137-.127,2.051-.286,2.051s-.278-.914-.278-2.051.159-.6.31-.6S840.014,500.424,840.014,501.553Z" transform="translate(-281.71 -134.904)" fill="#ffd037"/>
      <path id="Path_336" data-name="Path 336" d="M841.639,503.241c-.994.549-1.868.875-1.94.739s.668-.692,1.662-1.232.6-.151.684,0S842.633,502.7,841.639,503.241Z" transform="translate(-281.76 -135.24)" fill="#ffd037"/>
      <path id="Path_337" data-name="Path 337" d="M832.56,520.341s-6.877-.207-8.952-1.685-10.59-3.244-11.13-.874-10.335,11.782-2.576,11.846,18.063-1.208,20.13-2.472S832.56,520.341,832.56,520.341Z" transform="translate(-275.043 -138.141)" fill="#a8a8a8"/>
      <path id="Path_338" data-name="Path 338" d="M809.79,529.757c7.767.064,18.055-1.208,20.13-2.473,1.59-.954,2.2-4.4,2.385-5.994h.223s-.429,5.565-2.5,6.813-12.355,2.536-20.13,2.472c-2.242,0-3.013-.8-2.973-2C807.262,529.3,808.12,529.749,809.79,529.757Z" transform="translate(-275.042 -139.098)" opacity="0.2"/>
      <circle id="Ellipse_35" data-name="Ellipse 35" cx="17.196" cy="17.196" r="17.196" transform="translate(85.354 30.92)" fill="#1b8cfd" opacity="0.1"/>
      <circle id="Ellipse_36" data-name="Ellipse 36" cx="17.196" cy="17.196" r="17.196" transform="translate(382.779 3.778)" fill="#1b8cfd" opacity="0.1"/>
      <circle id="Ellipse_37" data-name="Ellipse 37" cx="17.196" cy="17.196" r="17.196" transform="translate(655.591 71.712)" fill="#1b8cfd" opacity="0.1"/>
      <circle id="Ellipse_38" data-name="Ellipse 38" cx="28.82" cy="28.82" r="28.82" transform="translate(0 176.973)" fill="#1b8cfd" opacity="0.1"/>
      <circle id="Ellipse_39" data-name="Ellipse 39" cx="28.82" cy="28.82" r="28.82" transform="translate(27.627 319.282)" fill="#1b8cfd" opacity="0.1"/>
      <circle id="Ellipse_40" data-name="Ellipse 40" cx="28.82" cy="28.82" r="28.82" transform="translate(567.383 193.756)" fill="#1b8cfd" opacity="0.1"/>
      <path id="Path_339" data-name="Path 339" d="M581.583,387.411c-1.018.1-2.051.048-3.061.207a13.937,13.937,0,0,0-4.77,1.916c-7.235,4.118-14.064,9.779-17.061,17.538a2.385,2.385,0,0,0-.223,1.55,2.622,2.622,0,0,0,.843,1.1l2.814,2.56a3.975,3.975,0,0,0,1.248.875,4.079,4.079,0,0,0,2.306-.072c7.736-1.773,15.956-3.816,21.386-9.6,2.576-2.743,4.953-6.519,8.745-6.622,1.59,0,3.077.612,4.643.8s3.45-.485,3.824-2.011a4.229,4.229,0,0,0-.254-2.25l-2.337-7.783c-.636-2.131-7.052-2.242-9.19-1.86C587.236,384.31,585.042,387.093,581.583,387.411Z" transform="translate(-223.696 -110.869)" fill="#65617d"/>
      <path id="Path_340" data-name="Path 340" d="M616.228,438.087a65.452,65.452,0,0,1-.334,8,23.338,23.338,0,0,1-1.98,6,39.408,39.408,0,0,1-5.406,8.515c-2.011,2.385-4.42,4.627-7.4,5.565s-6.646.262-8.507-2.25c-1.518-2.043-1.59-4.77-1.479-7.322.27-6.273,1.256-12.633,4.07-18.246,1.208-2.385,2.743-4.659,3.975-7.068,2.576-5,4.047-10.932,8.491-14.382a27.915,27.915,0,0,0,8.825,2.425c1.185.127,4.571.207,4.969,1.725.27,1.026-1.956,3.9-2.385,4.905a33.48,33.48,0,0,0-2.838,12.132Z" transform="translate(-230.801 -117.7)" fill="#65617d"/>
      <path id="Path_341" data-name="Path 341" d="M582.415,289.019c.954,2.433,2.163,4.818,2.385,7.41.159,1.59,0,3.18,0,4.77a31.15,31.15,0,0,0,1.081,6.44l4.428,18.126a23.22,23.22,0,0,1,.978,8.26c-.231,1.844-.9,3.633-.89,5.486a21.275,21.275,0,0,0,.668,4.158,25.615,25.615,0,0,1-.668,12.641,1.893,1.893,0,0,0-.135.978c.111.517.612.835,1.065,1.081a45.405,45.405,0,0,0,15.344,5.112,150.3,150.3,0,0,0,10.1-36.054c1.129-7.505,1.678-15.105,3.124-22.555a1.844,1.844,0,0,1,.517-1.145c.541-.453,1.359-.167,2,.135a178.111,178.111,0,0,1,23.382,13.515,29.209,29.209,0,0,0,5.4-24.177,50.084,50.084,0,0,0-3.975-10.4,58.742,58.742,0,0,0-6.758-11.345c-5.9-7.394-14.549-12.116-23.453-15.32-5.414-1.956-10.987-3.4-16.552-4.881-3.116-.835-8.34-3.554-11.369-1.439-3.18,2.2-5.295,7.664-6.6,11.13a41.008,41.008,0,0,0-2.592,13.428,37.939,37.939,0,0,0,2.528,14.644Z" transform="translate(-228.503 -83.29)" fill="#354168"/>
      <path id="Path_342" data-name="Path 342" d="M650.43,322.8c-1.662,1.813-.262,4.707-.58,7.155a9.883,9.883,0,0,1-1.169,3.14l-7.608,14.939a27.7,27.7,0,0,0-2.83,7.155c-1.042,5.39,1.1,11.448-1.638,16.21-.883,1.534-2.25,2.854-2.616,4.587a36.751,36.751,0,0,0-.135,3.864,25.75,25.75,0,0,1-1.431,4.3,29.966,29.966,0,0,0-.739,4.23,24.884,24.884,0,0,1-8.936,15.455,14.215,14.215,0,0,1-9.858,3.355c-3.546-.3-7.068-2.711-7.791-6.193-.247-1.185-.2-2.5-.938-3.466-1.049-1.375-3.26-1.431-4.269-2.838l3.911-6.44c1.216-2,2.457-4.078,2.655-6.408.239-2.854-1.137-5.7-.644-8.523.421-2.425,2.162-4.444,2.687-6.845.652-2.981-.652-5.995-1.36-8.968-1.733-7.322.207-14.954,2.139-22.261,2.568-9.667,5.2-19.486,10.4-28.032C630.053,312.809,639.593,318.175,650.43,322.8Z" transform="translate(-232.606 -95.218)" fill="#354168"/>
      <path id="Path_343" data-name="Path 343" d="M647.893,134.781c.62,1.685.286,3.554.167,5.343-.278,3.975.564,7.95.374,11.981s-1.431,7.879-2.29,11.8c-2.441,11.186-1.852,22.841-4.063,34.075-2.727,13.913-9.7,26.872-11.075,40.991-.437,4.484-.382,9.286-2.838,13.07a205.237,205.237,0,0,1-41.118-24.153c2.8-20.758,5.565-41.619,5.191-62.56a26.854,26.854,0,0,1,.525-7.537,23.239,23.239,0,0,1,2.83-5.867c3.077-5,6.464-9.8,9.842-14.6,2.162-3.069,4.5-6.289,7.95-7.728s7.537-.8,11.3-.111l13.563,2.48C641.072,132.483,646.685,131.5,647.893,134.781Z" transform="translate(-229.974 -58.632)" fill="#1b8cfd"/>
      <path id="Path_344" data-name="Path 344" d="M525.092,229.184a42.437,42.437,0,0,0-6.042-5.017c2.822-3.434,2.266-8.4,2.957-12.8a42.208,42.208,0,0,1,2.568-8.324c.286-.755.692-1.59,1.479-1.789a2.6,2.6,0,0,1,1.415.223c2.385.843,7.362.8,9.214,2.337,2.234,1.876.191,5.8-.652,8.149C535.435,213.538,526.277,230.377,525.092,229.184Z" transform="translate(-216.035 -73.494)" fill="#fbbebe"/>
      <path id="Path_345" data-name="Path 345" d="M524.193,414.771a16.472,16.472,0,0,1,2.3,6.36,6.313,6.313,0,0,1-2.56,5.923c-1.924,1.193-4.683.8-6.972.079a36.285,36.285,0,0,1-21.982-19.875,9.836,9.836,0,0,0-5.772-6.837c-3.124-1.765-6.138-4.086-7.585-7.378s-.8-7.688,2.2-9.644a8.125,8.125,0,0,1,6.233-.795,24.105,24.105,0,0,1,5.9,2.568c3.085,1.677,6.853,3.124,9.54,5.358a61.5,61.5,0,0,1,6.559,6.933,97.49,97.49,0,0,1,6.543,8.348C519.248,406.661,524.742,414,524.193,414.771Z" transform="translate(-208.212 -110.61)" fill="#65617d"/>
      <path id="Path_346" data-name="Path 346" d="M456.422,396.224a55.069,55.069,0,0,1-2.107,11.806c-.644,2.162-1.495,4.412-3.284,5.788a12.013,12.013,0,0,1-5.017,1.836,3.6,3.6,0,0,1-4.468-1.956c-2.655-3.514-5.239-7.227-6.36-11.488-1.59-6.177,0-12.8,2.759-18.572a19.008,19.008,0,0,1,4.253-6.193,16.29,16.29,0,0,1,7.807-3.506c2.934-.588,6.535-1.844,6.75,1.725A165.861,165.861,0,0,1,456.422,396.224Z" transform="translate(-198.716 -108.75)" fill="#65617d"/>
      <path id="Path_347" data-name="Path 347" d="M494.878,214.19c5.486,2.838,11.576,6.448,12.72,12.514.708,3.7-.652,7.5-.429,11.265.2,3.315,1.59,6.519,1.415,9.826a46.252,46.252,0,0,1-.795,4.651c-.469,2.934-.191,5.923-.31,8.888-.262,6.678-2.5,13.1-3.578,19.693a57.688,57.688,0,0,0-.533,14.239c.262,3.069.8,6.122.8,9.206a40.332,40.332,0,0,1-.549,6.632,66.143,66.143,0,0,1-6.36,19.771c-3.824,7.529-3.283,17.244-2.878,25.679a6.36,6.36,0,0,1-.429,3.435c-1,1.821-3.5,2.083-5.565,1.908a30.211,30.211,0,0,1-19.876-10.065,5.1,5.1,0,0,1-1.447-2.679c-.175-1.7,1.193-3.1,2.178-4.508,3.355-4.77,2.5-11.234,2.9-17.093a37.367,37.367,0,0,1,3.013-12.363c.986-2.266,2.218-4.5,2.441-6.964a17.589,17.589,0,0,0-1.185-6.766l-2.385-7.569c-3.7-11.758-7.418-23.588-13.014-34.568a17.292,17.292,0,0,0-7.354,10.335c-2.083,7.489.882,15.853-1.956,23.056a21.077,21.077,0,0,0-1.169,3.093,12.443,12.443,0,0,0-.191,2.775,225.934,225.934,0,0,0,1.415,23.191,7.155,7.155,0,0,0,.954,3.315c.469.676,1.153,1.177,1.654,1.821,1.391,1.8,1.129,4.333.8,6.583l-1.59,10.637a2.886,2.886,0,0,1-.517,1.5,2.846,2.846,0,0,1-1.352.731,37.683,37.683,0,0,1-15.63,1.431,10.369,10.369,0,0,1-4.253-2.1c-.135-1.59,1.844-2.647,1.916-4.229a3.649,3.649,0,0,0-1.216-2.433c-2.958-3.339-6.487-6.885-6.456-11.345,0-1.169.278-2.337.238-3.506-.1-3-2.17-5.565-2.894-8.451-.89-3.57.294-7.274.747-10.924.62-4.913-.111-9.89-.8-14.8l-2.663-18a48.212,48.212,0,0,0-1.654-8.252,64.612,64.612,0,0,0-3.522-7.744c-2.544-5.168-4.635-10.542-6.718-15.9a14.493,14.493,0,0,1-1.232-4.6c-.119-2.727,1.288-5.3,3.037-7.4a23.143,23.143,0,0,1,12.72-7.712,5.565,5.565,0,0,1,2.552-.1,6.853,6.853,0,0,1,1.98,1.041,47.558,47.558,0,0,0,42.033,4.985c.795.6,2.266.342,3.18-.087,2.552-1.169,4.635-3.116,6.877-4.77A40.948,40.948,0,0,1,494.878,214.19Z" transform="translate(-193.183 -76.149)" fill="#354168"/>
      <path id="Path_348" data-name="Path 348" d="M310.042,468.159a10.876,10.876,0,0,0,1.876,3.347c2.878,3.753,6.893,6.75,8.745,11.13.39.938.676,1.924,1.034,2.878A18.929,18.929,0,0,0,326.864,493a31.8,31.8,0,0,0,5.7,3.776c3.514,1.916,7.314,3.649,11.305,3.546a12.285,12.285,0,0,0,2.385-.286,12.9,12.9,0,0,0,3.554-1.3c2.568-1.415,4.77-4.182,4.261-7.068a6.464,6.464,0,0,0-.517-1.59,16.7,16.7,0,0,0-1.455-2.3,17.256,17.256,0,0,0-4.691-4.961c-2.21-1.352-4.993-1.685-6.98-3.355a10.968,10.968,0,0,1-2.011-2.433,30.669,30.669,0,0,1-3.975-9.008c-.6-2.385-1.01-5-2.751-6.75s-4.134-2.146-6.456-2.544a11.218,11.218,0,0,0-2.385-.231c-1.137.04-2.314.366-3.379-.167s-1.423-1.288-2.711-1.185a5.566,5.566,0,0,0-2.791,1.216C310.948,460.6,308.945,464.573,310.042,468.159Z" transform="translate(-173.131 -125.948)" fill="#3f3d56"/>
      <path id="Path_349" data-name="Path 349" d="M339.81,472.8c.517,2.7,1.312,5.565,3.395,7.322,1.328,1.145,3.18,1.86,3.84,3.474s-.191,3.641-1.288,5.12a18.859,18.859,0,0,1-5.12,4.7,7.655,7.655,0,0,1-5.629,1.375,9.4,9.4,0,0,1-4.031-2.624c-2.719-2.52-5.5-5.136-7.028-8.515-1.59-3.562-1.67-7.688-3.4-11.194-1.01-2.043-2.568-3.832-3.18-6.026a3.745,3.745,0,0,1,0-2.449,3.45,3.45,0,0,1,3.116-1.852,10.847,10.847,0,0,1,3.729.8,82.1,82.1,0,0,0,11,3.077c1.487.278,2.385.27,3.18,1.709A17.142,17.142,0,0,1,339.81,472.8Z" transform="translate(-174.653 -126.971)" fill="#fbbebe"/>
      <path id="Path_350" data-name="Path 350" d="M356.889,503.034a8.746,8.746,0,0,0-1.232,2.958,6.606,6.606,0,0,0-.087,2.5,12.9,12.9,0,0,0,3.554-1.3c2.568-1.415,4.77-4.182,4.261-7.068a6.463,6.463,0,0,0-.517-1.59,2.218,2.218,0,0,0-2.115.66,17.561,17.561,0,0,0-3.864,3.848Z" transform="translate(-182.509 -134.421)" fill="#fbbebe"/>
      <path id="Path_351" data-name="Path 351" d="M321.316,426.93a3.912,3.912,0,0,0-.294,2.385c.366,1.59,2,2.5,3.466,3.228l13.984,6.837a29.284,29.284,0,0,1,2.83,1.5,41.681,41.681,0,0,1,6.3,5.422,16.52,16.52,0,0,0,7,4.333,11.822,11.822,0,0,0,7.95-1.042,16.432,16.432,0,0,0,3.641-2.472,22.388,22.388,0,0,0,2.624-2.727,5.884,5.884,0,0,0,1.423-2.568,5.637,5.637,0,0,0-1.3-4.086,18.875,18.875,0,0,0-1.59-1.972c-5.3-5.859-13.992-8.9-21.466-10.089a61.131,61.131,0,0,1-8.658-2.5,20.273,20.273,0,0,0-8.864-1.169C325.379,422.439,322.453,424.148,321.316,426.93Z" transform="translate(-175.43 -118.723)" fill="#3f3d56"/>
      <path id="Path_352" data-name="Path 352" d="M321.316,426.93a3.912,3.912,0,0,0-.294,2.385c.366,1.59,2,2.5,3.466,3.228l13.984,6.837a29.284,29.284,0,0,1,2.83,1.5,41.681,41.681,0,0,1,6.3,5.422,16.52,16.52,0,0,0,7,4.333,11.822,11.822,0,0,0,7.95-1.042,16.432,16.432,0,0,0,3.641-2.472,22.388,22.388,0,0,0,2.624-2.727,5.884,5.884,0,0,0,1.423-2.568,5.637,5.637,0,0,0-1.3-4.086,18.875,18.875,0,0,0-1.59-1.972c-5.3-5.859-13.992-8.9-21.466-10.089a61.131,61.131,0,0,1-8.658-2.5,20.273,20.273,0,0,0-8.864-1.169C325.379,422.439,322.453,424.148,321.316,426.93Z" transform="translate(-175.43 -118.723)" opacity="0.1"/>
      <path id="Path_353" data-name="Path 353" d="M362.632,433.109a15.9,15.9,0,0,1,2.624,4.047,4.531,4.531,0,0,1,.6,3.236A4.723,4.723,0,0,1,364.4,442.3l-1.391,1.288a5.565,5.565,0,0,1-1.447,1.081,5.788,5.788,0,0,1-2.385.358c-1.868,0-3.88,0-5.4-1.121-2.075-1.495-2.449-4.587-1.5-6.964s2.926-4.174,4.921-5.78C358.816,429.849,361.5,431.909,362.632,433.109Z" transform="translate(-181.749 -120.537)" fill="#fbbebe"/>
      <path id="Path_354" data-name="Path 354" d="M376.076,443.088a7.068,7.068,0,0,0,.358,3.935c.35,1.193.692,2.385,1.033,3.6v.048a22.387,22.387,0,0,0,2.624-2.727,5.884,5.884,0,0,0,1.423-2.568,5.637,5.637,0,0,0-1.3-4.086,18.869,18.869,0,0,0-1.59-1.972c-.374.485-.7.962-.97,1.272A7.021,7.021,0,0,0,376.076,443.088Z" transform="translate(-186.702 -122.296)" fill="#fbbebe"/>
      <path id="Path_355" data-name="Path 355" d="M329.777,356.245c-1.646,6.917-.946,14.151-.072,21.211.668,5.374,1.415,10.94-.175,16.115-.588,1.932-1.518,3.9-1.161,5.891.676,3.76,5.207,5.207,8.96,5.915a8.834,8.834,0,0,0,3.315.2,7.871,7.871,0,0,0,3.021-1.59A33.026,33.026,0,0,0,355.3,388.523,57.2,57.2,0,0,0,357.61,375.6c.731-7.346,1.471-14.779.4-22.078-.318-2.147-.8-4.269-.994-6.432a46.475,46.475,0,0,1,.62-11.25,181.474,181.474,0,0,1,6.2-27.142,36.571,36.571,0,0,1-22.006-3.975c1.3.7-.191,11.854-.35,13.42a91.094,91.094,0,0,1-2.52,13.833C336.741,340.456,331.788,347.818,329.777,356.245Z" transform="translate(-176.934 -94.706)" fill="#3f3d56"/>
      <path id="Path_356" data-name="Path 356" d="M329.777,356.245c-1.646,6.917-.946,14.151-.072,21.211.668,5.374,1.415,10.94-.175,16.115-.588,1.932-1.518,3.9-1.161,5.891.676,3.76,5.207,5.207,8.96,5.915a8.834,8.834,0,0,0,3.315.2,7.871,7.871,0,0,0,3.021-1.59A33.026,33.026,0,0,0,355.3,388.523,57.2,57.2,0,0,0,357.61,375.6c.731-7.346,1.471-14.779.4-22.078-.318-2.147-.8-4.269-.994-6.432a46.475,46.475,0,0,1,.62-11.25,181.474,181.474,0,0,1,6.2-27.142,36.571,36.571,0,0,1-22.006-3.975c1.3.7-.191,11.854-.35,13.42a91.094,91.094,0,0,1-2.52,13.833C336.741,340.456,331.788,347.818,329.777,356.245Z" transform="translate(-176.934 -94.706)" opacity="0.1"/>
      <path id="Path_357" data-name="Path 357" d="M369.034,313.1c3.18,9.214,2.48,19.279,1.105,28.931s-3.4,19.3-2.806,29.026c.231,3.816.851,7.736-.262,11.385a24.887,24.887,0,0,1-2.441,5.08L339.26,431.389a7.887,7.887,0,0,1-6.36,3.975,18.42,18.42,0,0,1-7.9-1.693,14.215,14.215,0,0,1-4.6-2.552,5.446,5.446,0,0,1-1.94-4.659c1.137-7.616,2.846-15.416,4.11-23.056a39.911,39.911,0,0,1,5.517-14.6c1.964-3.18,4.381-6.034,6.074-9.341,4.866-9.477,3.18-21.036-.572-31.006s-9.341-19.224-12.323-29.416a33.722,33.722,0,0,1-1.5-8.745,23.318,23.318,0,0,1,6.646-16.584,5.828,5.828,0,0,1,2.3-1.59,6.44,6.44,0,0,1,3.132.056C345.962,294.915,364.367,299.487,369.034,313.1Z" transform="translate(-174.913 -92.088)" fill="#3f3d56"/>
      <path id="Path_358" data-name="Path 358" d="M654.919,142.731c.461,3.482-.8,7-2.584,10.017-6.766,11.289-22.364,16.282-34.424,11.027-4.969-2.17-9.175-5.748-13.293-9.278a11.834,11.834,0,0,1-3.522-4.126c-1.232-2.981.254-6.535,2.679-8.666s5.565-3.18,8.69-4.126C622.776,134.368,652.462,124.239,654.919,142.731Z" transform="translate(-232.762 -59.285)" fill="#fbbebe"/>
      <path id="Path_359" data-name="Path 359" d="M655.544,131.6c9.389,7.553,23.056,14.748,33.693,20.345,3.617,1.908,7.632,4.055,8.936,7.95a15.479,15.479,0,0,1,.239,6.543c-.445,4.222-.906,8.507-2.536,12.426-1.916,4.587-5.3,8.372-8.022,12.537-4.77,7.3-7.569,15.9-13.46,22.348,3.975,13.205,8.324,26.395,9.739,40.1a1.844,1.844,0,0,1-.119,1.121,1.925,1.925,0,0,1-.62.564l-9.89,6.487a11.132,11.132,0,0,0-2.854,2.385c-1.749,2.274-1.518,5.47-2.6,8.117a10.549,10.549,0,0,1-6.122,5.565,18.85,18.85,0,0,1-8.419.89,19.574,19.574,0,0,1-10.049-3.538c-2.52-1.908-4.317-4.587-6.05-7.227a28.133,28.133,0,0,1-3.18-5.8,26.1,26.1,0,0,1-1.081-9.23,97.574,97.574,0,0,1,1.693-17.673c.461-2.314,1.034-4.6,1.4-6.925.731-4.691.588-9.477,1.129-14.191a95.439,95.439,0,0,1,3.538-15.638,80.656,80.656,0,0,0,2.067-9.62,105.492,105.492,0,0,1,4.635-16.7l3.18-9.389c.676-2.027,1.359-4.047,2.162-6.026,1.495-3.7,3.419-7.3,3.927-11.242.565-4.3-4.078-9.405-2.512-13.444C654.494,131.9,655.186,131.314,655.544,131.6Z" transform="translate(-239.421 -59.205)" fill="#10c57e"/>
      <path id="Path_360" data-name="Path 360" d="M697.2,164.42c2.2.994,3.419,3.363,4.206,5.653a32.04,32.04,0,0,1,1.24,16.059,28.742,28.742,0,0,0-.636,4.1,27.358,27.358,0,0,0,.469,4.77c.795,6.082,0,12.259.262,18.4.27,6.9,1.773,14.191-1.121,20.464-1.924,4.166-5.565,7.266-9.159,10.081A183.267,183.267,0,0,1,648.6,269.26c2.711-3.26,2.759-8.165.954-12s-5.16-6.726-8.745-8.968a56.35,56.35,0,0,0,13.158-4.7c8.332-4.23,15.471-10.423,22.523-16.552a6.853,6.853,0,0,0,2.337-2.958c.716-2.385-1.256-4.651-2.624-6.742-4.142-6.36-3.18-14.668-1.447-22.03,1.932-8.069,4.77-16.107,9.946-22.595A22.348,22.348,0,0,1,697.2,164.42Z" transform="translate(-240.993 -65.947)" fill="#00d280"/>
      <path id="Path_361" data-name="Path 361" d="M642.726,291.462a10.867,10.867,0,0,1-2.735,3.005c-2.385,1.59-5.661.986-8.324-.143a24.287,24.287,0,0,1-6.758-4.3,10.592,10.592,0,0,0-3-2.226c-2.083-.8-4.993-.2-6.161-2.115a1.121,1.121,0,0,1-.191-.684c.072-.692.978-.882,1.678-.922a20.822,20.822,0,0,0,9.2-2.838,8.832,8.832,0,0,1-2.258-2.385,1.86,1.86,0,0,1-.382-1.129,2.019,2.019,0,0,1,.692-1.129,17.7,17.7,0,0,1,19.462-3.244,3.88,3.88,0,0,1,1.59,1.193,4.414,4.414,0,0,1,.58,1.59c.517,2.226,2.385,5.565,1.709,7.815C647.082,286.533,644.26,289.276,642.726,291.462Z" transform="translate(-235.817 -87.951)" fill="#fbbebe"/>
      <path id="Path_362" data-name="Path 362" d="M579.205,250.059c9.89-11.424,14.31-26.458,18.413-41l2.934-10.335,7.076-24.892c1.041-3.673,2.083-7.346,2.775-11.091a102.634,102.634,0,0,0,1.224-19.637,21.252,21.252,0,0,0-1.837-7.887c-.692-1.717-1.026-3.546-1.59-5.319a26.536,26.536,0,0,0-3.188-6.988,7.314,7.314,0,0,0-1.439-1.717,8.362,8.362,0,0,0-3.252-1.32,28.622,28.622,0,0,0-7.783-1.185,9.647,9.647,0,0,0-7.06,3.013c-1.3,1.534-1.892,3.522-2.918,5.247a20.479,20.479,0,0,0-1.3,2.2,11.132,11.132,0,0,0-.716,3.609q-.62,7.513-1.057,15.042c-.135,2.282-.254,4.579-.167,6.869.072,1.781.262,3.554.453,5.327l1.884,17.363c.437,4.078.127,7.895.493,11.981.89,9.866-1.232,19.732-3.411,29.416-1.042,4.6-2.115,9.27-4.341,13.436-1.964,3.689-4.905,7.433-4.126,11.544.27,1.431.994,2.767,1.105,4.214a8.455,8.455,0,0,0,.262,2.663,3.18,3.18,0,0,0,3.395,1.59A7.879,7.879,0,0,0,579.205,250.059Z" transform="translate(-226.509 -56.574)" fill="#10c57e"/>
      <path id="Path_363" data-name="Path 363" d="M578.836,223.541c.3,2.282.072,4.6.183,6.893a46.488,46.488,0,0,0,1.59,8.745c.8,3.18,1.813,6.742,4.619,8.507a14.513,14.513,0,0,1,2.011,1.264,1.956,1.956,0,0,1,.652,2.131l-2.186-.366a2.218,2.218,0,1,1-3.053,3.18,5.175,5.175,0,0,1-.2,2.131,1.733,1.733,0,0,1-1.59,1.193,2.561,2.561,0,0,1-1.137-.477l-5.708-3.538a10.533,10.533,0,0,1-4.11-3.975l-2.5-3.76a8.984,8.984,0,0,1-1.3-2.385c-.93-3.18,1.67-6.71.318-9.707a13.05,13.05,0,0,0-1.423-2.083c-2.886-3.975-2.7-9.381-2.385-14.31.1-1.662.406-3.633,1.908-4.357a3.92,3.92,0,0,1,3.729.66,15.838,15.838,0,0,0,3.339,2.107c.795.27,1.669.3,2.465.588,1.113.39,2.146,1.908,2.894,2.806a9.31,9.31,0,0,1,1.876,4.754Z" transform="translate(-224.932 -75.777)" fill="#fbbebe"/>
      <path id="Path_364" data-name="Path 364" d="M489.244,125.174a14.136,14.136,0,0,1-2.8,4.182,5.414,5.414,0,0,1-4.611,1.59c-1.765-.35-3.061-1.8-4.23-3.18-3.053-3.586-6.146-7.219-8.2-11.464-3.132-6.464-3.633-13.841-4.086-21-.111-1.844-.207-3.8.676-5.414,1.121-2.059,3.5-3.029,5.692-3.848L483.814,81.5a4.7,4.7,0,0,1,2.385-.437c1.9.318,2.6,2.608,3.117,4.46a27.824,27.824,0,0,0,4.532,9.222c2.719,3.625,8.817,8.507,5.335,13.03C494.976,113.2,492.3,119.052,489.244,125.174Z" transform="translate(-205.008 -48.859)" fill="#fbbebe"/>
      <path id="Path_365" data-name="Path 365" d="M496.6,105.433c5.311,4.993,7.107,12.768,6.853,20.043s-2.274,14.366-3.427,21.553-1.383,14.859,1.741,21.466c1.073,2.266,2.536,4.365,3.284,6.758a21.207,21.207,0,0,1,.628,7.259,20.727,20.727,0,0,1-1.447,7.5c-1.693,3.753-5.176,6.36-8.507,8.745-6.8,4.913-13.73,9.906-21.712,12.474a66.523,66.523,0,0,1-16.791,2.624,53.409,53.409,0,0,1-11.5-.326,31.22,31.22,0,0,1-17.451-9.238,9.778,9.778,0,0,1-1.98-2.727,11.33,11.33,0,0,1-.692-4.134q-.286-7.831.1-15.662a68.846,68.846,0,0,1,2.043-14.748c1.518-5.565,4.15-10.781,6.146-16.2,6.948-18.85,6.249-40.3,15.9-57.9,2.083-3.8,5.565-7.8,9.858-7.195a3.307,3.307,0,0,1,2.178,1,4.587,4.587,0,0,1,.8,2.449c1.026,8.554,2.48,17.331,6.511,25.051,1.59,3.029,3.975,7.64,7.64,8.451s5.828-2.687,7.791-5.168A63.45,63.45,0,0,1,496.6,105.433Z" transform="translate(-196.857 -49.804)" fill="#e3e8f4"/>
      <path id="Path_366" data-name="Path 366" d="M538.554,93.046a15.842,15.842,0,0,1,3.013,2.115c2.385,2.258,3.26,5.716,3.244,8.992s-.8,6.5-1.272,9.747c-1.28,8.745-.191,17.7.318,26.554a12.856,12.856,0,0,1-.254,4.277c-.389,1.336-1.193,2.512-1.709,3.808-1.518,3.832-.374,8.2-1.264,12.227-.954,4.285-4.221,8.181-3.609,12.53.247,1.7,1.065,3.268,1.415,4.953s.048,3.721-1.407,4.627-3.57.246-5.3.747a16.339,16.339,0,0,0-2.051.922,10.077,10.077,0,0,1-8.515-.525,25.805,25.805,0,0,1-6.877-5.454c-3.029-3.1-5.963-6.5-7.29-10.622-1.94-5.979-.215-12.49,1.892-18.421s4.619-11.925,4.245-18.23c-.207-3.53-1.32-6.925-1.988-10.391a66.466,66.466,0,0,1-.882-14.549c.1-3.562.342-7.235,1.876-10.455a14.4,14.4,0,0,1,11.385-7.791C529.086,87.5,533.856,90.343,538.554,93.046Z" transform="translate(-213.39 -50.288)" fill="#1e2f4f"/>
      <path id="Path_367" data-name="Path 367" d="M527.976,181.114a24.243,24.243,0,0,0,1.352,7.465c1.423-3.244,1.59-6.885,1.781-10.415.8-12.156,3.49-23.62,6.36-35.394-2.091,1.59-3.268,5.565-4.269,7.95A70.105,70.105,0,0,0,527.976,181.114Z" transform="translate(-217.846 -61.509)" opacity="0.1"/>
      <path id="Path_368" data-name="Path 368" d="M443.762,84.335c-3.832,1.01-7.155,3.283-10.868,4.77-3.856,1.59-8.006,2.266-12.053,3.244-9.365,2.274-18.771,6.5-24.423,14.31-4.166,5.748-5.891,12.848-8.745,19.359-2.385,5.462-5.565,10.582-7.322,16.266-2.3,7.418-2.035,15.368-1.471,23.111.461,6.36,1.161,12.792,4.047,18.429,1.511,2.958,3.593,5.6,5.1,8.562,1.813,3.554,2.767,7.473,4.277,11.13s3.729,7.314,7.235,9.222l5.8-3.395c8.658-5.064,17.316-10.137,25.7-15.638,7.314-4.77,14.692-10.248,18.588-18.087,3.45-6.925,3.792-15.018,2.9-22.706s-2.926-15.209-3.975-22.873a92.11,92.11,0,0,1,.6-29.026c.8-4.325,2.91-8.793,3.347-13.1C452.992,83.309,447.077,83.46,443.762,84.335Z" transform="translate(-187.224 -49.432)" fill="#1e2f4f"/>
      <path id="Path_369" data-name="Path 369" d="M411.362,240.873c4.444,4.206,10.836,5.43,16.393,7.95a35.2,35.2,0,0,1,10.947,7.95c1.709,1.876,3.363,4.428,2.5,6.813-.723,2.051-2.942,3.1-4.977,3.864-2.528.954-5.351,1.8-7.871.835a28.269,28.269,0,0,1-4.031-2.5c-3.331-1.98-7.529-1.988-10.947-3.816-4.818-2.576-7.219-8.244-11.75-11.305-2.48-1.67-5.907-3.037-6.161-6.018a7.275,7.275,0,0,1,.668-3.124c.914-2.433,2.472-10.788,5.955-10.566C405.885,231.205,408.54,238.861,411.362,240.873Z" transform="translate(-190.704 -79.585)" fill="#fbbebe"/>
      <path id="Path_370" data-name="Path 370" d="M375.425,190.771c1.455,5.231,4.834,9.691,8.34,13.841,2.52,2.981,5.287,6.225,5.374,10.129.08,3.689-2.385,7.084-5.565,8.968s-6.925,2.488-10.606,2.727a26.752,26.752,0,0,1-8.793-.612c-7.266-1.972-12.307-8.308-18.023-13.205-3.395-2.9-7.211-5.43-9.811-9.063s-3.7-8.849-1.137-12.514a18.112,18.112,0,0,1,3.18-3.18A53.154,53.154,0,0,0,349.348,174.7c1.177-2,2.306-4.158,4.285-5.358,2.838-1.725,6.479-.938,9.691-.1,3.49.914,13.325,2.7,14.008,7.155.278,1.829-1.988,4.675-2.329,6.638a17.585,17.585,0,0,0,.421,7.728Z" transform="translate(-178.053 -66.746)" fill="#fbbebe"/>
      <path id="Path_371" data-name="Path 371" d="M389.8,203.86a33.572,33.572,0,0,1,2.56,5.923c2.425,8.427-1.908,17.109-3.975,25.632-2.639,10.916-1.518,22.332-1.646,33.566-.056,5.136-.6,10.788-4.3,14.35a13.323,13.323,0,0,0-2.743,2.814,11.647,11.647,0,0,0-.882,2.632,13.563,13.563,0,0,1-19.653,8.093c-3.013-1.678-5.629-4.587-9.079-4.675a26.313,26.313,0,0,0-3.236.358c-3.435.342-6.8-.93-10.017-2.178a6.535,6.535,0,0,1-2.115-1.129c-.58-.533-.954-1.248-1.487-1.821-1.964-2.115-5.319-1.749-8.149-2.337a11.409,11.409,0,0,1-8.642-8.642c-.572-2.735-.087-5.565.39-8.324l2.131-12.291a113.166,113.166,0,0,0,1.852-13.651,57.241,57.241,0,0,0-1.32-15.431c-.938-4.134-2.337-8.181-2.846-12.394A30.282,30.282,0,0,1,322.2,193.04c1.105-1.518,2.552-3.037,4.428-3.18a7.444,7.444,0,0,1,4.261,1.455q17.2,10.176,34.631,19.931a40.974,40.974,0,0,0,9.978,4.468c1.065.27,2.592.159,2.743-.922a2.011,2.011,0,0,0-.31-1.169c-1.988-3.824-4.866-7.107-7.155-10.749s-4.055-7.95-3.379-12.18c.922-5.851,6.36-9.723,10.8-5.136C383.191,190.766,386.53,197.461,389.8,203.86Z" transform="translate(-174.45 -69.866)" fill="#fbcd2a"/>
      <path id="Path_372" data-name="Path 372" d="M358.518,299.43c9.326.6,18.858,1.232,27.492,4.81,2.775,1.145,5.716,2.624,8.634,1.916a11.544,11.544,0,0,0,3.975-2.131,90.945,90.945,0,0,0,10.16-8.666c-.318-1.741-2.679-1.98-4.444-1.964a26.562,26.562,0,0,1-12.371-2.973,20.847,20.847,0,0,0-3.975-1.852c-3.776-1.041-7.624.946-11.417,1.916-5.613,1.431-11.528.6-17.26-.246l-15.471-2.282c-1.439-.207-3.061-.374-4.206.517a5.136,5.136,0,0,0-1.5,2.7c-1.892,6.36-.986,6.893,5.311,7.29Z" transform="translate(-178.772 -91.236)" fill="#fbbebe"/>
      <circle id="Ellipse_41" data-name="Ellipse 41" cx="25.441" cy="25.441" r="25.441" transform="translate(365.559 46.931)" opacity="0.1"/>
      <circle id="Ellipse_42" data-name="Ellipse 42" cx="25.441" cy="25.441" r="25.441" transform="translate(365.376 45.826)" fill="#fbbebe"/>
      <path id="Path_373" data-name="Path 373" d="M644.279,87.717c2.035,1.256,4.166,2.608,5.279,4.722a23.638,23.638,0,0,1,1.36,4.452c1.391,4.77,5.1,8.912,5.319,13.881.246,5.446-3.84,10.176-8.467,13.03a6.28,6.28,0,0,1-3.641,1.224c-1.344-.087-2.5-.93-3.737-1.471-5.223-2.321-11.067.62-16.6,1.972a29.8,29.8,0,0,1-17.332-1.018,16.4,16.4,0,0,1-7.743-5.366c-1.868-2.584-2.536-6.2-.946-8.976.8-1.415,2.115-2.7,2.027-4.309a22.29,22.29,0,0,0-.8-2.8c-.254-1.518.541-3,1.352-4.293a62.139,62.139,0,0,1,13.754-15.559c1.59-1.3,3.427-2.576,5.51-2.671,4.182-.183,7.775,2.934,12.076,2.95C636.575,83.5,640.081,85.125,644.279,87.717Z" transform="translate(-231.988 -48.752)" fill="#1e2f4f"/>
      <circle id="Ellipse_43" data-name="Ellipse 43" cx="26.236" cy="26.236" r="26.236" transform="translate(270.928 13.421)" opacity="0.1"/>
      <circle id="Ellipse_44" data-name="Ellipse 44" cx="26.236" cy="26.236" r="26.236" transform="translate(271.389 12.777)" fill="#fbbebe"/>
      <path id="Path_374" data-name="Path 374" d="M518.067,94.392c3.7,2.075,8.276,1.86,12.41.914A16.7,16.7,0,0,0,537,92.556a7.863,7.863,0,0,0,3.283-6.042c0-2.663-1.749-5.064-1.964-7.728-.262-3.355,1.924-6.456,2.155-9.826s-1.431-6.408-3.053-9.3c-2.791-4.969-5.692-10-9.938-13.8s-10.129-6.225-15.694-4.945c-2.735.628-5.271,2.1-8.062,2.385-2.481.231-4.929-.517-7.4-.835s-5.247-.119-7.02,1.59c-.97.954-1.59,2.3-2.727,3a16.365,16.365,0,0,1-2.385.882c-2.87,1.153-4.182,4.389-5.2,7.3l-6.821,19.55c2.282,1.59,5.032,2.314,7.529,3.538s4.921,3.18,5.43,5.915c.39,2.075-.35,4.46.859,6.193,1.105,1.59,3.355,1.86,5.263,1.59s3.824-.93,5.732-.636c4.77.723,6.543,3.649,10.955,0S513.964,92.087,518.067,94.392Z" transform="translate(-206.426 -40.56)" fill="#1e2f4f"/>
      <circle id="Ellipse_45" data-name="Ellipse 45" cx="23.851" cy="23.851" r="23.851" transform="translate(162.28 74.328)" opacity="0.1"/>
      <circle id="Ellipse_46" data-name="Ellipse 46" cx="23.851" cy="23.851" r="23.851" transform="translate(163.202 73.032)" fill="#fbbebe"/>
      <path id="Path_375" data-name="Path 375" d="M378.011,130.095a62.9,62.9,0,0,0-18.866-9.922c-4.357-1.415-9.1-2.385-13.515-1.081-5.994,1.709-14.016,4.261-17.729,9.278-1.829,2.465-3.681,5-4.563,7.95-1.765,5.931.747,12.251.58,18.437-.2,7.211-4.023,13.794-8.2,19.677s-5.017,14.31-7.481,21.1c-.843,2.329-1.113,5.565,1.057,6.734,1.908,1.057,4.214-.262,5.979-1.534l10.614-7.672a8.086,8.086,0,0,1,2.8-1.495c2.186-.509,4.325.859,6.153,2.155L357.1,209.462a6.829,6.829,0,0,0,.1-5.788c2.091.644,3.609,2.385,5.446,3.625s4.627,1.646,5.963-.087.326-4.063-1.161-5.462-3.442-2.234-4.9-3.673c-2.886-2.87-3.18-7.4-5-11.027-1.3-2.544-3.411-4.675-4.333-7.386-1.5-4.428.461-9.2,2.385-13.46,2.3-5.056,4.9-10.455,9.787-13.094,1.646-.89,3.466-1.415,5.152-2.226,4.2-2.011,9.437-6.758,11.488-11.011C383.831,136.1,381.064,132.448,378.011,130.095Z" transform="translate(-172.697 -56.53)" fill="#1e2f4f"/>
      <path id="Path_376" data-name="Path 376" d="M341.214,232.029c2.282,1.455,4.858,2.385,7.1,3.9s4.206,3.824,4.269,6.527c.064,2.584-1.59,4.85-3.18,6.9l-19.367,25.417,9.874,2.616c-1.59,2.194-2,4.993-2.822,7.569s-2.385,5.255-5.025,5.931c-2.385.612-4.881-.644-7.346-.5-1.821.111-3.538.97-5.358,1.042-2.345.087-4.524-1.145-6.479-2.449-4.357-2.918-8.682-7.1-8.65-12.347a18.674,18.674,0,0,1,1.057-5.2c2.854-9.31,5.812-18.842,11.727-26.586a83.464,83.464,0,0,1,10.955-11.091,10.216,10.216,0,0,1,3.069-2.123c2.544-.954,5.319.223,7.95.986s5.947.875,7.465-1.375" transform="translate(-172.002 -79.646)" opacity="0.1"/>
      <path id="Path_377" data-name="Path 377" d="M340.166,230.045c2.282,1.447,4.858,2.385,7.1,3.9s4.206,3.824,4.277,6.519-1.59,4.858-3.18,6.909l-19.375,25.393,9.874,2.616c-1.59,2.194-2,4.985-2.822,7.569s-2.385,5.255-5.025,5.931c-2.385.612-4.881-.644-7.346-.5-1.821.1-3.538.97-5.358,1.033-2.345.087-4.524-1.145-6.479-2.449-4.357-2.91-8.682-7.1-8.642-12.339a18.289,18.289,0,0,1,1.049-5.2c2.854-9.318,5.812-18.85,11.727-26.586a85.729,85.729,0,0,1,10.955-11.13,10.511,10.511,0,0,1,3.069-2.123c2.544-.954,5.319.223,7.95.994s5.947.875,7.465-1.375" transform="translate(-171.789 -79.228)" fill="#e9c02d"/>
      <g id="Group_222" data-name="Group 222" transform="translate(364.889 50.278)" opacity="0.1">
        <path id="Path_378" data-name="Path 378" d="M599.543,121.464a16.383,16.383,0,0,0,7.744,5.366,29.662,29.662,0,0,0,17.331,1.018c5.565-1.352,11.377-4.293,16.6-1.972,1.232.549,2.385,1.383,3.729,1.479a6.36,6.36,0,0,0,3.649-1.232,18.81,18.81,0,0,0,7.593-8.292,2.049,2.049,0,0,0,.048.533c.247,5.446-3.84,10.176-8.467,13.03a6.281,6.281,0,0,1-3.641,1.224c-1.344-.087-2.5-.93-3.737-1.471-5.223-2.321-11.067.62-16.6,1.972a29.8,29.8,0,0,1-17.332-1.018,16.4,16.4,0,0,1-7.743-5.366c-1.868-2.584-2.536-6.2-.946-8.976l.119-.2A9.723,9.723,0,0,0,599.543,121.464Z" transform="translate(-596.877 -106.62)"/>
        <path id="Path_379" data-name="Path 379" d="M601.131,105.358a5.577,5.577,0,0,1-1.383,3.291,5.021,5.021,0,0,1-.231-.8,6.132,6.132,0,0,1,1.2-4.055,5.285,5.285,0,0,1,.413,1.558Z" transform="translate(-597.408 -103.8)"/>
      </g>
      <path id="Path_380" data-name="Path 380" d="M480.848,54.864l-6.821,19.542c2.282,1.59,5.032,2.321,7.529,3.538s4.921,3.18,5.43,5.915c.39,2.075-.35,4.46.859,6.2,1.105,1.59,3.355,1.852,5.263,1.59s3.824-.93,5.732-.636c4.77.723,6.543,3.649,10.955.04s6.01.676,10.113,2.981c3.7,2.083,8.276,1.868,12.41.914a16.7,16.7,0,0,0,6.519-2.743,10.151,10.151,0,0,0,.795-.723,8.857,8.857,0,0,1-2.671,3.307,16.7,16.7,0,0,1-6.519,2.751c-4.134.946-8.745,1.161-12.41-.914-4.1-2.306-5.788-6.511-10.113-2.981s-6.2.684-10.955,0c-1.908-.294-3.816.366-5.732.636s-4.158,0-5.263-1.59c-1.208-1.733-.469-4.118-.859-6.193-.509-2.735-2.934-4.7-5.43-5.915s-5.247-1.956-7.529-3.538L479,57.448c.8-2.155,1.67-4.484,3.26-6.018a26.7,26.7,0,0,0-1.415,3.434Z" transform="translate(-206.422 -42.787)" opacity="0.1"/>
      <g id="Group_223" data-name="Group 223" transform="translate(134.93 70.663)" opacity="0.1">
        <path id="Path_381" data-name="Path 381" d="M369.426,206.78c1.757.8,3.975.914,5.088-.572,1.248-1.59.326-4.055-1.161-5.462s-3.442-2.234-4.9-3.673c-2.886-2.862-3.18-7.394-5-11.019-1.3-2.552-3.411-4.683-4.333-7.394-1.5-4.42.461-9.2,2.385-13.452,2.3-5.056,4.9-10.455,9.787-13.094,1.646-.89,3.466-1.415,5.152-2.226,4.2-2.011,9.437-6.766,11.488-11.019,1.725-3.586-.708-7.068-3.6-9.429,1.407.914,2.783,1.876,4.118,2.9,3.061,2.385,5.82,6,3.975,9.763-2.051,4.253-7.29,9-11.488,11.011-1.685.8-3.506,1.336-5.152,2.226-4.889,2.639-7.489,8.038-9.787,13.094-1.932,4.261-3.9,9.031-2.385,13.46.922,2.711,3.029,4.842,4.333,7.386,1.844,3.625,2.115,8.157,5,11.027,1.455,1.439,3.411,2.266,4.9,3.673s2.385,3.84,1.161,5.462-4.134,1.288-5.963.087C371.811,208.7,370.69,207.6,369.426,206.78Z" transform="translate(-318.075 -129.44)"/>
        <path id="Path_382" data-name="Path 382" d="M310.762,215.459l10.614-7.664a8.11,8.11,0,0,1,2.8-1.5c2.186-.5,4.325.867,6.153,2.162L352.588,224.2a6.845,6.845,0,0,0,.1-5.8c2.043.636,3.53,2.337,5.3,3.53a5.946,5.946,0,0,0-.8-.294,6.829,6.829,0,0,1-.1,5.788l-22.261-15.741c-1.829-1.3-3.975-2.663-6.153-2.155a8.086,8.086,0,0,0-2.8,1.495L315.27,218.7c-1.765,1.272-4.07,2.592-5.979,1.534a3.49,3.49,0,0,1-1.662-3.069,11.521,11.521,0,0,0,3.132-1.7Z" transform="translate(-307.628 -145.171)"/>
      </g>
      <path id="Path_383" data-name="Path 383" d="M631.018,280.78s-45.555,3.649-54.618-2.806l41.675-6.424Z" transform="translate(-227.791 -87.907)" fill="#e3e8f4"/>
      <path id="Path_384" data-name="Path 384" d="M631.018,280.78s-45.555,3.649-54.618-2.806l41.675-6.424Z" transform="translate(-227.791 -87.907)" opacity="0.1"/>
      <path id="Path_385" data-name="Path 385" d="M629.306,278.894l-12.76-8.077s-38.066,10.939-48.5,6.424l10.614-14.891,37.716,7.354Z" transform="translate(-226.079 -86.021)" fill="#e3e8f4"/>
      <path id="Path_386" data-name="Path 386" d="M569.216,143.923a22.366,22.366,0,0,0-3.347,5.875c-.366,1.121-.549,2.29-.859,3.427a26.33,26.33,0,0,1-3.975,7.879c-3.919,5.7-8.817,11.2-9.8,18.047a30.438,30.438,0,0,0,.716,10.16,27.426,27.426,0,0,0,1.876,6.416c1.01,2.178,2.512,4.094,3.665,6.2a44.039,44.039,0,0,1,2.655,6.424c1.36-1.359,2.162-3.18,3.252-4.77s2.711-3.021,4.627-3.045c2.21,0,4.031,1.829,6.217,2.115a1.773,1.773,0,0,0,1.018-.1c.8-.374.859-1.447.8-2.306-.628-6-4.063-11.925-2.441-17.745,1.495-5.382,6.837-8.745,9.644-13.571,2.035-3.506,2.639-7.64,3.18-11.663a72.259,72.259,0,0,0,1.057-14.5c-.151-2.441-2.091-17.864-5.637-16.25-1.232.557-2.306,2.918-3.077,3.975L575.6,135Z" transform="translate(-222.594 -58.154)" fill="#00d280"/>
      <path id="Path_387" data-name="Path 387" d="M301.222,232.4l-25.576,20.822-32.906-5.883,22.157-17.4Z" transform="translate(-49.756 -47.131)" fill="#e3e8f4"/>
      <path id="Path_388" data-name="Path 388" d="M302.382,230.767l-25.576,20.822L243.9,245.705l22.157-17.4Z" transform="translate(-49.994 -46.797)" opacity="0.1"/>
      <path id="Path_389" data-name="Path 389" d="M302.15,229.375l-25.576,20.814-32.914-5.875,22.165-17.4Z" transform="translate(-49.945 -46.51)" fill="#e3e8f4"/>
      <path id="Path_390" data-name="Path 390" d="M303.08,226.347,277.5,247.168l-32.906-5.883,22.165-17.4Z" transform="translate(-50.136 -45.891)" opacity="0.1"/>
      <path id="Path_391" data-name="Path 391" d="M302.842,224.957l-25.576,20.822L244.36,239.9l22.157-17.4Z" transform="translate(-50.088 -45.606)" fill="#e3e8f4"/>
      <path id="Path_392" data-name="Path 392" d="M877.565,623.893h0a4.118,4.118,0,0,1,5.907,3.379l1.423,18.452-8.443,1.526L872,633.91Z" transform="translate(-288.382 -160.044)" fill="#3f3d56"/>
      <path id="Path_393" data-name="Path 393" d="M472.87,468.18,343.655,533.754a8.992,8.992,0,0,0,.064,16.052l278.3,139.661a33.78,33.78,0,0,0,31.745-.795l117.218-66.1a8.992,8.992,0,0,0-.533-15.9L480.812,468.093A8.992,8.992,0,0,0,472.87,468.18Z" transform="translate(-179.078 -128.013)" fill="#3f3d56"/>
      <path id="Path_394" data-name="Path 394" d="M342.7,536.56l-4.047,3.005-.318,14.39a5.979,5.979,0,0,0,3.244,5.454L624.635,704.66a4.214,4.214,0,0,0,6.145-3.745v-20.9Z" transform="translate(-178.993 -142.228)" fill="#3f3d56"/>
      <path id="Path_395" data-name="Path 395" d="M472.867,447.2,343.652,512.765a8.992,8.992,0,0,0,.04,16.052L622.013,668.478a33.8,33.8,0,0,0,31.745-.8l117.218-66.106a8.992,8.992,0,0,0-.533-15.9L480.809,447.1a8.992,8.992,0,0,0-7.942.1Z" transform="translate(-179.075 -123.711)" fill="#f5f5f5"/>
      <path id="Path_396" data-name="Path 396" d="M366.473,421.86,224.1,494.151,468.8,616.505,615.625,541.98Z" transform="translate(-45.936 -86.471)" fill="#fff"/>
      <ellipse id="Ellipse_47" data-name="Ellipse 47" cx="15.018" cy="8.896" rx="15.018" ry="8.896" transform="translate(497.39 489.997)" fill="#3f3d56"/>
      <circle id="Ellipse_48" data-name="Ellipse 48" cx="1.391" cy="1.391" r="1.391" transform="translate(237.115 357.078)" fill="#3f3d56"/>
      <circle id="Ellipse_49" data-name="Ellipse 49" cx="1.67" cy="1.67" r="1.67" transform="translate(232.671 367.643)" fill="#3f3d56"/>
      <line id="Line_21" data-name="Line 21" y1="7.783" x2="16.688" transform="translate(240.454 358.747)" fill="none" stroke="#3f3d56" stroke-width="1"/>
      <rect id="Rectangle_325" data-name="Rectangle 325" width="83.016" height="28.621" rx="14.31" transform="translate(328.783 437.073) rotate(-30)" fill="#1b8cfd"/>
      <rect id="Rectangle_326" data-name="Rectangle 326" width="83.016" height="28.621" rx="14.31" transform="translate(370.918 458.541) rotate(-30)" fill="#1b8cfd"/>
      <rect id="Rectangle_327" data-name="Rectangle 327" width="83.016" height="28.621" rx="14.31" transform="translate(290.622 412.43) rotate(-30)" fill="#1b8cfd"/>
    </g>
  </g>
</svg>
