<svg xmlns="http://www.w3.org/2000/svg" width="35" height="41.787" viewBox="0 0 35 41.787">
  <g id="manager" transform="translate(-0.5 0)">
    <path id="Path_203" data-name="Path 203" d="M261.867,161.632a.816.816,0,1,0-.816-.816A.817.817,0,0,0,261.867,161.632Zm0,0" transform="translate(-239.905 -146.941)" fill="#716ef1"/>
    <path id="Path_204" data-name="Path 204" d="M161.867,161.632a.816.816,0,1,0-.816-.816A.817.817,0,0,0,161.867,161.632Zm0,0" transform="translate(-147.829 -146.941)" fill="#716ef1"/>
    <path id="Path_205" data-name="Path 205" d="M189.046,231.241a5.134,5.134,0,0,0,4.322.02.816.816,0,1,0-.682-1.483,3.5,3.5,0,0,1-2.944-.013.816.816,0,1,0-.7,1.476Zm0,0" transform="translate(-173.227 -210.94)" fill="#716ef1"/>
    <path id="Path_206" data-name="Path 206" d="M35.5,33.118c0-4.488-4.969-8.008-9.229-8.174L24.1,22.935a10.747,10.747,0,0,0,4.253-8.57V8.978A8.879,8.879,0,0,0,19.595,0H16.421a8.828,8.828,0,0,0-8.7,8.978v5.387a10.769,10.769,0,0,0,4.2,8.555l-2.19,2.024C5.478,25.11.5,28.621.5,33.118v7.854a.805.805,0,0,0,.793.816H34.706a.805.805,0,0,0,.793-.816ZM16.242,36.4h3.511l.832,3.754h-5.2Zm3.579-1.632H16.192l-.609-1.951L18,31.575l2.469,1.27ZM18,29.123l-2.757-4.537a10.036,10.036,0,0,0,5.51.007Zm1.136,1.211,3.81-6.27L25,25.963l-2.614,6.043Zm-2.715-28.7h3.174a7.267,7.267,0,0,1,7.169,7.345v.675l-1.49-2.207a.789.789,0,0,0-.586-.348.78.78,0,0,0-.634.243A7.715,7.715,0,0,1,18,9.794a7.72,7.72,0,0,1-6.056-2.454.781.781,0,0,0-.637-.242.789.789,0,0,0-.586.353L9.307,9.583v-.6a7.24,7.24,0,0,1,7.113-7.345ZM9.307,14.365V12.478l2.2-3.322A9.341,9.341,0,0,0,18,11.427a9.337,9.337,0,0,0,6.494-2.275l2.27,3.363v1.85a8.891,8.891,0,0,1-8.756,8.978,8.846,8.846,0,0,1-8.7-8.978Zm3.747,9.7,3.81,6.27-3.251,1.672L11,25.963ZM2.087,33.118c0-3.362,3.974-6.265,7.446-6.529L12.5,33.45a.8.8,0,0,0,.457.436.774.774,0,0,0,.623-.038l.565-.291.644,2.062-1.035,4.537H2.087Zm31.826,7.038h-11.7l-1-4.524.69-2.05.518.267a.774.774,0,0,0,.623.038.8.8,0,0,0,.457-.436l2.969-6.861c3.472.264,7.446,3.167,7.446,6.529Zm0,0" fill="#716ef1"/>
    <path id="Path_207" data-name="Path 207" d="M305.132,446h-3.265a.816.816,0,0,0,0,1.632h3.265a.816.816,0,0,0,0-1.632Zm0,0" transform="translate(-276.81 -409.599)" fill="#716ef1"/>
    <path id="Path_208" data-name="Path 208" d="M381.316,446a.816.816,0,1,1-.816.816A.816.816,0,0,1,381.316,446Zm0,0" transform="translate(-349.986 -409.599)" fill="#716ef1"/>
  </g>
</svg>
