<svg xmlns="http://www.w3.org/2000/svg" width="60.238" height="60.238" viewBox="0 0 60.238 60.238">
  <g id="_001-graphic-design" data-name="001-graphic-design" transform="translate(0 -0.001)">
    <g id="Group_9" data-name="Group 9" transform="translate(0 0.001)">
      <g id="Group_8" data-name="Group 8" transform="translate(0 0)">
        <circle id="Ellipse_3" data-name="Ellipse 3" cx="0.972" cy="0.972" r="0.972" transform="translate(6.801 17.488)" fill="#28b2fc"/>
        <circle id="Ellipse_4" data-name="Ellipse 4" cx="0.972" cy="0.972" r="0.972" transform="translate(10.688 17.488)" fill="#28b2fc"/>
        <circle id="Ellipse_5" data-name="Ellipse 5" cx="0.972" cy="0.972" r="0.972" transform="translate(14.574 17.488)" fill="#28b2fc"/>
        <path id="Path_179" data-name="Path 179" d="M33.334,215.989H45.839l-12.505-11.77Zm1.943-7.272,5.662,5.329H35.277Z" transform="translate(-26.533 -162.552)" fill="#28b2fc"/>
        <path id="Path_180" data-name="Path 180" d="M60.238,5.83V0H54.409V1.944H34.977V0H29.148V5.83h5.829V3.887h3.285A11.655,11.655,0,0,0,33.034,13.6H5.83a2.918,2.918,0,0,0-2.915,2.915v12.17A1.8,1.8,0,0,0,1,28.247,1.843,1.843,0,0,0,0,30.12v27.2a2.918,2.918,0,0,0,2.915,2.915H32.062a1.644,1.644,0,0,0,1.194-3.011l-.93-.875h25a2.918,2.918,0,0,0,2.915-2.915V16.518A2.918,2.918,0,0,0,57.323,13.6h-.972a11.655,11.655,0,0,0-5.228-9.716h3.285V5.83h5.83ZM56.352,1.944H58.3V3.887H56.352ZM33.034,3.887H31.091V1.944h1.943ZM4.858,16.517a.973.973,0,0,1,.971-.971H33.2c0,.008.012.01.018.014a11.546,11.546,0,0,0,2.817,5.815H4.858V16.517ZM2.915,58.3h0a.972.972,0,0,1-.972-.971v-.972H3.887V54.409H1.943V52.466H3.887V50.523H1.943V48.58H3.887V46.637H1.943V44.693H3.887V42.75H1.943V40.807H3.887V38.864H1.943V36.921H3.887V34.978H1.943V30.425l10.165,9.567,2.931,2.758L31.556,58.3H2.915ZM8.744,34.158V27.205H30.119v13.6H15.81Zm49.55,19.281a.972.972,0,0,1-.971.971H30.262L17.874,42.75H32.062V25.262H6.8v7.066L4.858,30.5V23.319H38.306c.188.122.362.259.558.372v1.1a2.394,2.394,0,0,0-.473,3.388,2.406,2.406,0,0,0-.5,1.458,2.432,2.432,0,0,0,2.429,2.429h8.744a2.432,2.432,0,0,0,2.429-2.429,2.4,2.4,0,0,0-.5-1.457,2.394,2.394,0,0,0-.473-3.388v-1.1c.2-.113.37-.25.558-.372h7.215ZM40.321,29.148h8.744a.486.486,0,1,1,0,.972H40.321a.486.486,0,1,1,0-.972Zm-.486-2.429a.486.486,0,0,1,.486-.486h8.744a.486.486,0,1,1,0,.972H40.321A.486.486,0,0,1,39.835,26.719ZM56.186,15.546h1.138a.973.973,0,0,1,.972.972v4.858H53.351a11.541,11.541,0,0,0,2.79-5.68A.707.707,0,0,0,56.186,15.546ZM54.409,13.6a9.677,9.677,0,0,1-5.3,8.646l-.528.271v1.77H45.665V17.351a3.886,3.886,0,1,0-1.943,0V24.29H40.807V22.52l-.528-.271A9.712,9.712,0,1,1,54.409,13.6Zm-9.716,1.943A1.943,1.943,0,1,1,46.636,13.6,1.945,1.945,0,0,1,44.693,15.546Z" transform="translate(0 -0.001)" fill="#28b2fc"/>
        <rect id="Rectangle_285" data-name="Rectangle 285" width="22.346" height="1.943" transform="translate(34.006 34.977)" fill="#28b2fc"/>
        <rect id="Rectangle_286" data-name="Rectangle 286" width="22.346" height="1.943" transform="translate(34.006 38.863)" fill="#28b2fc"/>
        <rect id="Rectangle_287" data-name="Rectangle 287" width="22.346" height="1.943" transform="translate(34.006 42.749)" fill="#28b2fc"/>
        <rect id="Rectangle_288" data-name="Rectangle 288" width="22.346" height="1.943" transform="translate(34.006 46.636)" fill="#28b2fc"/>
      </g>
    </g>
  </g>
</svg>
