<svg xmlns="http://www.w3.org/2000/svg" width="35" height="34.993" viewBox="0 0 35 34.993">
  <g id="worldwide" transform="translate(0 -0.05)">
    <g id="Group_128" data-name="Group 128" transform="translate(0 0.05)">
      <path id="Path_214" data-name="Path 214" d="M17.506.05A17.5,17.5,0,0,0,1.42,10.66l-.218.072.085.254A17.5,17.5,0,1,0,17.506.05ZM31.23,26.368l-.9-.9V23.378a.583.583,0,0,0-.058-.261L28,18.575v-2.2a.583.583,0,0,0-.26-.485l-1.75-1.166a.583.583,0,0,0-.467-.08l-2.143.535-3.6-1.544-.5-3.469L20.659,8.8H23.6l.991,1.49a.583.583,0,0,0,.39.251l3.5.583a.578.578,0,0,0,.28-.022l3.223-1.074A16.272,16.272,0,0,1,31.23,26.368ZM28.825,5.8l-.948.632L25.233,5.9l-1.715-.571a.573.573,0,0,0-.325-.013l-2.168.542-.951-.317.7-1.409H22.75a.583.583,0,0,0,.261-.061l2.018-1.009A16.39,16.39,0,0,1,28.825,5.8ZM11.113,2.519l1.4.933a.582.582,0,0,0,.228.09l2.826.471-.276.825-1.473.492a.583.583,0,0,0-.316.253L11.828,8.374,9.138,9.988l-3.966.566a.583.583,0,0,0-.5.577v1.75a.583.583,0,0,0,.171.412l1,1v1L3.411,13.673l-.88-2.64A16.424,16.424,0,0,1,11.113,2.519ZM9.453,21.64l-2.636-.528-.98-1.954V17.788L8.01,15.615l.8,1.609a.583.583,0,0,0,.522.323h3.752l1.58,2.633a.583.583,0,0,0,.5.283H16.79l-.408,2.045-2.208,2.208a.583.583,0,0,0-.171.412v1.458l-2.1,1.575a.583.583,0,0,0-.233.467v2.107l-.726-.24L9.919,27.932v-5.72A.583.583,0,0,0,9.453,21.64ZM7.7,30.606A16.326,16.326,0,0,1,1.883,12.778l.485,1.453a.583.583,0,0,0,.229.3L5.5,16.47l-.663.664a.583.583,0,0,0-.171.412V19.3a.583.583,0,0,0,.061.261L5.9,21.89a.583.583,0,0,0,.408.311l2.449.489v5.354a.583.583,0,0,0,.041.216l1.166,2.916a.583.583,0,0,0,.358.337l1.75.583a.573.573,0,0,0,.181.03.583.583,0,0,0,.583-.583V28.919l2.1-1.575a.583.583,0,0,0,.233-.467V25.37l2.162-2.162a.584.584,0,0,0,.159-.3l.583-2.916a.583.583,0,0,0-.572-.7h-2l-1.58-2.633a.583.583,0,0,0-.5-.283H9.7l-1-2.01a.583.583,0,0,0-.429-.315.572.572,0,0,0-.506.163L7,14.972v-.925a.583.583,0,0,0-.171-.412l-1-1v-1l3.582-.511a.586.586,0,0,0,.218-.078L12.552,9.3a.583.583,0,0,0,.2-.2l1.639-2.731,1.545-.516a.577.577,0,0,0,.369-.369l.583-1.75a.583.583,0,0,0-.457-.758l-3.376-.563-.593-.4a16.285,16.285,0,0,1,11.216.417l-1.066.532h-2.2a.583.583,0,0,0-.525.323L18.726,5.621a.583.583,0,0,0,.338.814l1.75.583a.573.573,0,0,0,.325.013l2.168-.542,1.589.529a.429.429,0,0,0,.07.019l2.916.583a.579.579,0,0,0,.438-.086l1.327-.885A16.453,16.453,0,0,1,31.4,8.992l-2.869.956-3.107-.518L24.4,7.891a.583.583,0,0,0-.482-.26h-3.5A.583.583,0,0,0,20,7.8l-1.75,1.75a.583.583,0,0,0-.165.5l.583,4.082a.583.583,0,0,0,.35.453l4.082,1.75a.576.576,0,0,0,.371.03l2.083-.521,1.273.85v2.021a.583.583,0,0,0,.058.261l2.275,4.543v2.2a.583.583,0,0,0,.171.412l1.22,1.221A16.326,16.326,0,0,1,7.7,30.606Z" transform="translate(0 -0.05)" fill="#4ec591"/>
    </g>
  </g>
</svg>
